<?xml version="1.0" encoding="utf-8"?>
<!-- Generator: Adobe Illustrator 24.0.1, SVG Export Plug-In . SVG Version: 6.00 Build 0)  -->
<svg version="1.1" id="图层_1" xmlns="http://www.w3.org/2000/svg" xmlns:xlink="http://www.w3.org/1999/xlink" x="0px" y="0px"
	 viewBox="0 0 272.3 272.3" style="enable-background:new 0 0 272.3 272.3;" xml:space="preserve">
<style type="text/css">
	.st0{fill:#FFFFFF;}
	.st1{fill:#642223;}
	.st2{fill:#662727;}
	.st3{fill:#E6C9B8;}
	.st4{fill:#662627;}
	.st5{fill:#5E2E2F;}
	.st6{fill:#FBE3D2;}
	.st7{fill:#FBE5D2;}
	.st8{fill:#FCE6D7;}
	.st9{fill:#F8DCC7;}
	.st10{fill:#6E4141;}
	.st11{fill:#F9E1D0;}
	.st12{fill:#FBE7D3;}
	.st13{fill:#FBE8D6;}
	.st14{fill:#705052;}
	.st15{fill:#FCE2D1;}
	.st16{fill:#654142;}
	.st17{fill:#623E42;}
	.st18{fill:#663D42;}
	.st19{fill:#644D46;}
	.st20{fill:#55383B;}
	.st21{fill:#F6B68D;}
	.st22{fill:#9F8081;}
	.st23{fill:#FBA16C;}
	.st24{fill:#C6C6C6;}
	.st25{fill:#FBA064;}
	.st26{fill:#6A1F14;}
	.st27{fill:#6C6464;}
	.st28{fill:#7E2729;}
	.st29{fill:#F9CAAA;}
	.st30{fill:#F8E9E4;}
	.st31{fill:#A8A3A3;}
	.st32{fill:#F3B2A8;}
	.st33{fill:#CBB0A8;}
	.st34{fill:#E1BCB8;}
	.st35{fill:#F1908B;}
	.st36{fill:#BC5657;}
	.st37{fill:#DEC4C2;}
	.st38{fill:#F2D4CB;}
	.st39{fill:#F8B58C;}
	.st40{fill:#FAF8FA;}
	.st41{fill:#722818;}
	.st42{fill:#D09190;}
	.st43{fill:#F9C1C6;}
	.st44{fill:#EED1CF;}
	.st45{fill:#DFB0B3;}
	.st46{fill:#F9DDE1;}
	.st47{fill:#C1655F;}
	.st48{fill:#F8B288;}
	.st49{fill:#5F2426;}
	.st50{fill:#5B3B37;}
	.st51{fill:#F9C5A5;}
	.st52{fill:#E27E78;}
	.st53{fill:#EAC9C4;}
	.st54{fill:#F6D5D1;}
	.st55{fill:#D49C9A;}
	.st56{fill:#FAC8A9;}
	.st57{fill:#F9C8A7;}
	.st58{fill:#FBD3B7;}
	.st59{fill:#F8CCA9;}
	.st60{fill:#E5D8DA;}
	.st61{fill:#FEFEFE;}
	.st62{fill:#EBE9E8;}
	.st63{fill:#DBDCDB;}
	.st64{fill:#F3DCD9;}
	.st65{fill:#782220;}
	.st66{fill:#DBD9D8;}
	.st67{fill:#6B3832;}
	.st68{fill:#E8E6E6;}
	.st69{fill:#DFD9D7;}
	.st70{fill:#F0928D;}
	.st71{fill:#642F34;}
	.st72{fill:#A6A6A5;}
	.st73{fill:#E3DBD6;}
	.st74{fill:#F7AF83;}
	.st75{fill:#F4B083;}
	.st76{fill:#DB8A85;}
	.st77{fill:#721F22;}
	.st78{fill:#825959;}
	.st79{fill:#71393B;}
	.st80{fill:#473944;}
	.st81{fill:#5F3E3B;}
	.st82{fill:#F7C29C;}
	.st83{fill:#F7E5D7;}
	.st84{fill:#F9DDD5;}
	.st85{fill:#F9C3C1;}
	.st86{fill:#F1BFB3;}
	.st87{fill:#EDDDDE;}
	.st88{fill:#E4DADA;}
	.st89{fill:#86524A;}
	.st90{fill:#7D5049;}
	.st91{fill:#F6A9A4;}
	.st92{fill:#F99187;}
</style>
<circle class="st0" cx="136.1" cy="136.1" r="136.1"/>
<title>画板 1</title>
<path class="st1" d="M183.6,112.5c8-2.7,12.2-0.4,14.4,7.7c0.2,1,0.8,1.9,1.7,2.4c17,8.7,24.7,24.4,30.8,41.2
	c0.1,0.4,0.3,0.8,0.5,1.1c1.3,2.2,0.4,4.7,1,7c0.2,1,0.2,1.8,1.5,2.3c1.9,0.8,3,2.8,2.7,4.8c-0.3,3.8-0.2,7.6-0.8,11.4
	c-0.4,1.1-0.5,2.2-0.5,3.4c0,0.3,0,0.6-0.1,0.9c-0.2,0.6-0.5,1.1-1,1.5c-0.3,0.1-0.6,0.1-0.9,0c-0.7-0.8-0.4-2.2-1.5-2.9
	c-0.3-0.7-0.3-1.5,0.1-2.2c0.2-0.2,0.4-0.5,0.6-0.6c0.5-0.3,1.8-6.9,1-9.7c-0.6-0.7-0.9-1.6-1.1-2.5c-0.7-2.8-3.2-5.1-2.4-7.6
	c1.2,5.8,0,12.3-0.6,18.8c-0.2,1.7-1,2.6-2.6,1c-0.6-1.5,0.3-3,0.1-4.4c1.6-11.4,0.5-22.5-5-32.9c-0.9-2.3-2-4.5-3.2-6.6
	c-3.5-4.9-6.4-10.4-11.3-14.2c-2.1-1.4-4.2-2.6-6.3-4c-3.4-2.8-7.6-3.8-11.6-5.1c-1.7-0.5-3.3-1.2-4.9-2c-0.8-0.4-1.7-0.7-2.6-0.8
	c-0.3-0.1-0.6-0.1-0.9-0.2c-9.1-0.5-18.2,0.3-27.1,2.4c-0.3,0.1-0.6,0.1-0.9,0.2c-0.7,0.1-1.4,0.4-2.1,0.7c-1.7,0.7-3.2,1.8-4.6,3
	c-2.9,1.6-5.6,3.6-8.1,5.8c-0.4,0.3-1,0.6-0.9,1.1s0.9,0.4,1.4,0.5c1.6-0.1,3.1,0.4,4.3,1.4c1.1,1,1.9,2.1,0,3.2
	c-0.4,0.2-0.9,0.2-1.4,0.2c-1.8,0-3.7,0.1-5.5,0.1c-2,0.1-4-0.3-5.8-1.2c-0.2-0.2-0.4-0.5-0.5-0.8c0.2-0.9,0.8-1.8,1.1-2.7
	c2.3-4.7,6.8-6.8,10.8-9.6c5.9-4.1,12.6-6.9,19.7-8.2c3.6-1,7.4-1.2,11.1-0.8C176.6,116.3,180.4,115.7,183.6,112.5z"/>
<path class="st2" d="M29.4,73.7c-4.2-5.4-4.8-9.6-1.9-13.6c1.1-1.6,2.4-2.7,4.4-2.1c2.2,0.7,2.4,2.6,2.1,4.3
	c-0.9,4.4,0.4,7.7,4.3,10c0.9,0.5,1.7,1.9,2.9,0.8s0.9-2.5,0.1-3.7c-1.2-2.1-2.5-4.1-3.6-6.2c-1-1.9-1.9-3.9-2.8-5.9
	c-1.3-3.1-0.4-4.3,3.1-4.2c4.7,0.1,9.4,0.2,14,0.6c5,0.5,9.7,0.1,13.6-3.6c0.9-0.7,1.9-1.2,3-1.5c0.6,1.4-1.3,1.9-1.1,3.1
	c-0.7,1.8,1,1.8,1.9,2.5c1.9,1.5,1.9,2.2-0.3,3.8c-5.7-1.6-11.8-1.1-17.1,1.5c-1.3,0.6-2.8,1.1-3.7-0.7c0.6-1.8,0.2-2.7-1.9-2.4
	c-1.6,0.2-3.9-0.8-4.5,0.7c-0.5,1.3,1.5,2.6,2.7,3.5c2.5,1.8,2.4,4.1,1.5,6.6c-2,8.3-1.6,11.2,7.7,12.8c0.7,0.1,1.4,0.5,1.9,1
	c1,2.3-0.5,2.8-2.2,2.9c-4.1,0.1-7.8-0.8-10.6-4.1c-0.6-0.7-1-1.8-2.2-1.3c-1,0.4-1,1.5-1.2,2.4c-0.5,1.6,0.4,3.3-0.2,4.9
	c-1,1.4-2.2,0.2-3.4,0.2c-0.3-0.1-0.5-0.3-0.7-0.6c-0.8-1.6-0.1-3.1,0.2-4.5c0.4-1.9,0-3.1-1.9-3.9C31.9,76.2,30.2,75.5,29.4,73.7z"
	/>
<path class="st3" d="M120,193c0,0-1.4,5.6-1.9,6.4c-2.5,1.1-3.9,4-6.8,4.5c-3,0-5.4,1.4-7.6,3.1c-0.9,0.6-1.3,1.8-0.9,2.8
	c0.3,0.9,1.1,1.5,2.1,1.6c0.3,0,0.6-0.1,0.8-0.3c0.4-0.5-0.1-0.4-0.3-0.4c-0.8,0.1-1.5-0.4-1.7-1.2c0-0.1,0-0.1,0-0.2
	c0-0.3,0-0.7,0.2-1c0.6-1.5,1.6-2.7,3.6-2c0.1,0.3,0.1,0.6,0.3,0.8c2.1,3.2,2.1,3.7-1.1,6c-2.5,0.4-4.8,0-5.5-2.7
	c-0.8-2.9,0.7-4.7,3.2-6c1.5-0.8,3-1.7,4.4-2.6c-1.7-1.2-3.6-0.8-5.4-0.5c-7.3,1-14.5,2.2-21.7,3.4c-2.7,0.5-5.4,0.5-8.1,0.2
	c-2.7-0.4-4.8-1.8-5-5c2.2,0.4,3.2,2.7,5.6,3.1c3.5,0.6,6.8-0.1,10.2-0.7c5.9-0.9,11.6-2.1,17.5-2.9c2.5-0.4,4.9-0.4,7.4,0
	c-3.8-0.7-7.8-0.7-11.6,0.1c-6.1,1.3-12.3,2.3-18.5,3c-1.9,0.2-4.4,1.3-5.8-1.3c7.9-0.6,15.8-1.8,23.5-3.5c4.7-0.9,9.7-0.2,14.6-0.1
	c2.6,0,3.8-1.2,5.2-3.4C118.9,190.7,121.9,191.2,120,193z"/>
<path class="st4" d="M67.4,51.3c-0.6-0.2-1.4-0.3-0.5-1.1c0.6-0.5,1.4-0.8,1.7-1.7c0.5-0.6,1.1-1.1,1.8-1.6
	c7.9-4.9,8.8-4.2,10.2,4.9c0.8,5.4,0.2,11.1,2.6,16.4c1.4,3.1-1,5.7-2.8,8.1c-0.2,0.2-0.3,0.5-0.4,0.7l-0.6,0.6
	c-1.3,1.2-0.4,2.7-0.7,4c0,0.7-0.3,1.3-0.9,1.6c-3,0.3-6,0.6-9,1.1c-1.7,0.3-3.5,0.6-5.2-0.4c-0.5-1.7,1-1.6,1.8-1.8
	c2.3-0.6,4.5-1.4,6.8-1.8c1.2,0,2.1-0.9,2.4-2c0.6-2.8,3.1-4.4,4.4-6.8c1.2-2.2,0-3.9-1-5.7c-0.6-1.3-1.7-2.3-2.9-3
	c-2.8-1.4-3.4-3.6-2.5-6.5c0.4-1.2,0.6-2.4,0.9-3.6c0.3-1.2,1.7-2.8,0.7-3.7s-2.2,0.8-3.4,1.3c-0.5,0.2-0.9,0.5-1.4,0.7
	s-1.1,0.3-1.6,0.3L67.4,51.3z"/>
<path class="st5" d="M73.6,201.1c2.1,1.1,4.2,0.7,6.4,0.4c7.4-1.1,14.7-2.4,22.1-3.5c3-0.4,6.1-0.1,9,0.6c0.6,0.2,1.7,0,1.6,0.9
	s-1.2,0.7-1.9,0.7c-2.1,0-4.1-0.4-6.2-0.2c-8.6,0.6-16.9,2.9-25.4,3.9c-4.3,0.5-8.1,0-10.4-4.2c-1-2.3-1.3-4.8-0.8-7.3
	c0.5-2.7,2.5-3.9,4.9-4.7c1.8-0.7,3.8-0.2,5.1,1.2c1.6,1.4,1.8,3.8,0.5,5.5c-0.4,0.4-0.8,0.8-1.3,1c-0.8,0.4-1.8,1-2.5-0.1
	c-0.4-0.7-0.3-1.6,0.4-2c0.1,0,0.1-0.1,0.2-0.1c0.8-0.5,1.6-1.1,0.9-2.3s-2-0.9-3.1-0.5c-1.5,0.5-2.6,1.9-2.6,3.5
	C70.4,196.9,70.5,199.6,73.6,201.1z"/>
<path class="st6" d="M234.8,191.4l0.8-13c0.1-1.1,0.1-2.4-0.9-2.8c-4-1.5-3.2-4.9-3.5-7.9c-0.1-0.9-0.1-1.9-0.2-2.8
	c2,1.6,1.1,3.8,1.4,5.8c0.1,1-0.5,2.3,0.8,2.8c4.3,1.5,3.7,5,3.5,8.3c-0.3,3.7-0.8,7.4-1.1,11.1c-0.3,1.1,0.2,2.3,1.3,2.8
	c5.6,3,8.7,13.6,4.6,18.2c-3.2,3.6-5.8,9-12.1,8.5c-0.4-1.2,0.5-1.7,1.1-2.4c2.2-1.9,4.9-3.1,6.8-5.4c4.5-5.5,4.3-10.7-1-16.2
	c-1.2-1.3-2.2-2.4-1.6-4.3C234.5,193.2,234.5,192.2,234.8,191.4z"/>
<path class="st7" d="M106.8,212.9c0.9-1.7,4.3-3.4,0-5.2c0,0,0.4-1,0.6-1.6s0.7-1.1,1.3-1.2c2-0.1,3.4,0.9,3.4,2.8
	c0.3,6.4,5.3,8.8,9.5,11.8c2.4,1.5,5,2.6,7.8,3.1c2.4,1.8,5.6,1.7,8.2,3.2c0.7,0.4,1.6,0.4,1.7,1.4c-0.1,0.2-0.4,0.3-0.6,0.2
	c-0.1,0-0.1-0.1-0.2-0.2c-9.9-0.3-18.3-4.4-25.5-11c-0.5-0.4-0.9-0.9-1.2-1.4C111,212.3,109.2,212.1,106.8,212.9z"/>
<path class="st8" d="M138.6,227.5l0.7-0.1c2.1-1.4,4.8-1.5,7.1-0.4s4.5,1.2,6.8,1.6c9,1.5,18,2.6,27.1,2.2c2.9-0.3,5.8-0.2,8.7,0.3
	c0.4,0.1,0.7,0.4,0.9,0.7c-1.6,0.8-3.5,1.2-5.3,1.2c-10.8,0.4-21.5-0.7-32.1-1.7c-4.3-0.4-8.7,0-12.5-2.7
	C139.4,228.3,139.1,227.7,138.6,227.5z"/>
<path class="st9" d="M75.5,96.8c-2.9,2.9-6.8,2.1-10.2,2.3c-6.6,0.5-13.2,0.4-19.8-0.5c-0.5-0.8-3-0.5-1.3-2.4
	c2.3-0.7,4.7-0.1,7.1-0.4h11.1c4.4,0.1,8.8,0.7,12.9-1.5c0.3-0.2,0.6-0.4,0.9-0.5c0.9-0.4,2-0.3,2.9,0.2c0.6,1-0.2,1.2-0.8,1.5
	C77.3,95.8,76.4,96.3,75.5,96.8z"/>
<path class="st10" d="M91.4,53.7c1.3,0.2,1.9,0.9,1.5,2.2c-0.2,0.7-0.9,1.7-0.3,2c3.5,1.4,2.3,4.2,2.5,6.8c0.1,1.6-0.3,2.2-1.6,2.3
	c-1.3,0.1-2.8-0.9-2.1-1.9c2.4-3.6-2.2-4.5-2.4-7c-0.1-0.7-1.9-1.1-1-2.4S90.3,54.1,91.4,53.7z"/>
<path class="st11" d="M75.5,96.8c0.5-1.9,2.6-1.6,3.7-2.5c0.2-0.8,0.7-1.5,1.4-2c2.9-2.8,2.9-4.5-0.1-7.1c-1.3-1.1-2.5-2.2-2.1-4.1
	c0.1-1.5-0.5-3.2,1.4-4.1c0.1-0.1,0.2-0.3,0.4-0.3s0.4,0.1,0.5,0.2c-1.2,2.7-0.4,4.5,2,6.3c1.9,1.5,3.3,3.5,4,5.8
	c0.6,2.7-2.2,3.9-4.2,5.4C80.5,95.9,78.1,96.8,75.5,96.8z"/>
<path class="st12" d="M43.7,96.7l1.9,1.9c-2.2-0.1-4.5,0.5-6.4-1.5c-0.8-0.6-1.9-0.8-2.9-0.6c-1.8,0.4-2.8-0.4-3.9-1.7
	c-5.1-6.5-5-7.7,1.7-12.6l0.7-0.6c0.6,0.4,0.4,1.1,0.4,1.7c-0.3,0.8-1.2,1.1-1.7,1.7c-3.2,4-1.4,6.9,2.7,8.2
	C38.7,94.3,41,95.7,43.7,96.7z"/>
<path class="st13" d="M190,231.7h-0.7c1.3-2.4,3.8-2.4,6.1-2.7c1.8-0.2,3.7,0.2,5.5-0.4c2.3-0.3,4.6-1,6.8-1.9
	c1.6-0.3,3.2-0.4,4.8-0.2c0.7,0,1.4,0.3,1.9,0.9c-4.4,4-9.9,3.9-15.3,4.3C196,231.9,193,231.7,190,231.7z"/>
<path class="st14" d="M86.9,157.9c-0.3,1,0.9,2.9-1.3,2.9c-1.7,0-1.6-1.7-1.4-2.9c0.4-3.2-1.4-2.8-3.4-2.2c-0.8,0.2-1.5,0.6-2.3,0.8
	c-0.4,0.1-0.8-0.1-1.1-0.4c-0.4-0.6,0.2-0.9,0.6-1.1c0.8-0.5,1.6-1,2.4-1.4C84.5,151.6,86.5,152.9,86.9,157.9z"/>
<path class="st15" d="M214.3,227.4h-2c-0.1-0.5,0.2-1,0.8-1.1l0,0c5.2-1.6,10.4-3.6,15.3-6c0.6-0.4,1.5-0.3,2,0.3l-1.2,1.9l0,0
	c-0.4,0.3-0.9,0.2-1.3,0.6C224,226.2,219.2,227.7,214.3,227.4z"/>
<path class="st16" d="M102.9,170.1c-0.8,2.1-3,2.4-4.7,3.3c-2.1,1.1-1.1-1.4-1.7-1.8c-2.7-2-0.7-2.8,0.7-3.7
	c0.4-0.2,1.3-0.3,1.4-0.1c0.9,1.3,1.7,2.2,3.4,1.1C102.4,168.6,102.8,169.4,102.9,170.1z"/>
<path class="st17" d="M98,175.6c1.3,0.1,6.8,5.3,6.7,6.3c0,0.5-0.2,1-0.6,1.3c-0.5,0.5-1.4,0.5-1.9,0l-0.1-0.1
	c-1.7-1.8-3.4-3.6-4.9-5.6C96.4,176.6,96.8,175.7,98,175.6z"/>
<path class="st18" d="M88.2,147.3c1.5-0.2,2.9,0.8,3.1,2.3c0,0.2,0,0.4,0,0.6c0.2,1.4-0.8,2.8-2.2,3c-0.2,0-0.4,0-0.6,0
	c-1.9,0-2.7-1.3-2.8-3S86.4,147.1,88.2,147.3z"/>
<path class="st19" d="M91.5,172.9c-1.2-0.1-1.2-1.1-0.6-1.7c1-1.4,1.8-3,2.4-4.6c0.2-0.5,0.4-1.1,1-1c0.4,0.1,0.7,0.3,0.9,0.7
	C96,167.4,92.8,172.9,91.5,172.9z"/>
<path class="st20" d="M90.4,164.5c-0.8,1.4-2.6,0.8-3.7,1.6c-0.5,0.6-1.4,0.6-2,0.1l0,0c-0.4-0.4-0.3-1,0.1-1.4
	c1.3-1.2,3.1-1.7,4.9-1.5C90.3,163.3,90.4,163.7,90.4,164.5z"/>
<path class="st21" d="M34.7,83.6v-1.8c0.7-2.5-0.3-4.1-2.6-5.1c-1.3-0.6-2.7-1.2-2.8-2.9c1.8,1.1,3.4,2.7,5.6,3.3
	c1.5,0.4,1.5,1.7,1.1,2.8c-0.5,1.9-0.7,3.9-0.5,5.8c-0.1,0.7-0.4,0.8-0.9,0.3C34.2,85.2,34.2,84.3,34.7,83.6z"/>
<path class="st22" d="M89.3,169c-1.6,0.6-2.9,0.4-3.1-0.1s0.3-1.2,0.5-1.4c1-1.1,2.6-1.4,4-0.6S91.3,168.6,89.3,169z"/>
<path class="st6" d="M228,222.9l1.3-0.6L228,222.9z"/>
<path class="st23" d="M80.5,76.8c-0.2,0-0.3-0.1-0.5-0.2l0.4-0.3C80.6,76.5,80.6,76.7,80.5,76.8z"/>
<path class="st24" d="M184.1,120.6c5.3,2.2,11.1,3.2,16,6.4c0.4,0.3,0.8,0.7,1.1,1.1c0.5,0.6,0.4,1.5-0.2,2
	c-0.1,0.1-0.2,0.1-0.2,0.2c-1.6,1.1-1.9,2.8-2.1,4.5c-0.7,2.5-0.8,5.4-4.5,5.7c-1.1,0.1-0.5,1.4-1,2c-1.4,0.2-2.6,0.7-3,2.4
	c-0.3,1.2-0.8,2.9-2.9,2c-0.1-0.7,0-1.4,0.3-2.1c0.3-1.3-0.1-1.1-1.2-1c-7.4,0.9-14.8,1.6-21.9-1.5c-0.2-0.1-0.4-0.4-0.6-0.4
	c0.3,0.2,0.5,0.4,0.7,0.6c1,0.6,1.8,1.5,2.3,2.5c0.7,1.8,0.9,3.7,0.7,5.6c-0.1,0.3-0.2,0.6-0.3,0.9c-0.2,0.6-0.7,1.1-1.3,1.3
	c-0.3,0-0.6-0.1-0.8-0.4c-0.5-1,0-2,0-3c0.1-1.9-0.6-3.7-1.9-5c-2-2-3.6-1.9-5.5,0.1c-0.7,0.7-0.8,2.3-2.4,1.9
	c-0.5-0.6-0.6-1.5-0.3-2.2c0.1-0.4,0.3-0.7,0.6-1c0.2-0.3,0.5-0.5,0.8-0.6c-0.3-0.2-0.4,0.1-0.7,0.2c-2.7,0.7-5.1,2.2-6.8,4.3
	c-1.4,1.8-4.1,2.5-5.6,4.5c-1.8,0.5-2.4,2.5-3.9,3.4c-0.9,0.4-0.9,1.2-0.8,1.9c-2.5,8-3.4,16.5-2.7,24.9c0.5,8.7,2.9,16.8,8.5,23.7
	c0.3,0.4,0.8,0.8,0.9,1.2c0.8,3,3.2,4.1,5.9,4.9c2.4,0.8,4.9,1.5,7.4,2c0.5,0,1,0.1,1.4,0.3c0.9,0.3,1.9,0.4,2.9,0.5
	c8.5,1.2,8.5,1.2,8.5-7c-0.1-1.8,0.1-3.5,0.6-5.2c0.4-1.1,0.7-2.2,2.2-2.2c0.9,2.5,0,5,0.3,7.5c0,0.5-0.1,0.9-0.2,1.4
	c-0.3,0.8-0.4,1.7-0.1,2.6c0.1,0.3,0.2,0.6,0.2,0.9c0,1.5,0.4,3-0.7,4.2c-6.2,1.5-12.3,0.3-18.4-1c-11.3-2.3-20.8-8.6-30.8-13.8
	c-0.9-0.4-1.5-1.1-1.9-2c-0.2-0.5-0.3-1-0.3-1.5c1.6-5.1-0.2-10-0.8-14.9c-1.3-11.3,0-22.7,3.9-33.4c0.8-1.4,0.8-3.7,2.7-3.8
	s2,2.3,2.8,3.6c0.6,1.1,1.4,2.1,2.2,3c0.7,0.6,1.5,1.1,2.4,0.3c0.2-0.2,0.3-0.4,0.5-0.6c0.7-1,1.5-2,2.4-2.8
	c1.9-2.8,2.6-5.5-0.3-8.2c-1.5-1.5-0.4-2.4,1.3-2.6c1-0.1,2.1,0,3.1-0.1c0.6,0.1,1.2-0.3,1.5-0.9c0.2-0.6-0.1-1.3-0.6-1.6
	c-1-1-2.2-1.5-3.6-1.6c-0.8-0.1-1.8,0-2.2-0.9c-0.5-1.2,0.8-1.6,1.4-2.1c2.5-2.1,5.2-4,8-5.7c2.7-2.2,5.6-3.9,9.3-2.2
	c0.3,0.2,0.5,0.3,0.8,0.5c0.1,0.1,0.2,0.2,0.4,0.3c4,1.9,7.8,4.4,11,7.5c3.5,3.3,6.6,3.6,9.2,0.9s2.2-7.6-1.1-10.5
	c-1.3-1.2-1.3-2.1,0.7-2.2c1.5-0.2,3-0.1,4.5,0.2C182.4,120.5,183.3,119.9,184.1,120.6z"/>
<path class="st25" d="M118,199.3c0-1,0.1-1.9,0.1-2.9c0-0.2,0.3-0.4,0.5-0.3h0.1c0.1,0,0.1,0.1,0.2,0.1c0.7,0.8,1.1,1.8,1,2.8
	c0.2,1.7,1.4,3.2,3,3.7c4.9,1.1,8.4,4.5,12.5,6.8c9.4,5.4,20,8.5,30.8,9c4,0.1,62-22,66.7-22.2l0.5,0.1c0.2,0.2,0.4,0.4,0.5,0.6
	c0,0.3,0,0.5-0.1,0.8c-0.2,0.3-0.4,0.7-0.5,1.1c0.2,1.8,1.8,2.5,2.8,3.6c3.2,3.6,3,7.8-0.9,10.7c-3.5,2.6-6.7,5.5-10.7,7.4
	c-4.3,1.9-9.2,1.7-13.5,3.5c-6.6,2.8-13.9,2.4-20.7,4.3c-11.2,0.1-22.5,1.1-33.6-0.6c-11.3-1.8-22.7-4.1-33.3-8.9
	c-4.3-2.2-7.7-5.8-9.7-10.2c-0.6-1.1-0.6-2.5,0.1-3.6C115.4,202.9,116.3,200.7,118,199.3z"/>
<path class="st26" d="M233,196.1c-0.1,1.1-1.1,1.9-2.2,1.8c-0.1,0-0.2,0-0.3-0.1h-0.1c-2.8-1.1-3.7,1-4.9,2.6
	c-5.1,6.8-11.8,10.6-20.1,12.5c-6.4,1.5-12.7,3.1-19.1,4.2c-1.5,0.2-2.8,1-3.8,2.1c-1.7,2-3.5,2-5.5,0.9c-1.3-0.6-2.8-0.8-4.3-0.6
	c-11.9,0.8-23.1-2.2-33.8-7c-4.2-2.1-8.2-4.4-12-7.1c-1.1-0.7-2-1.6-3.6-1.3s-4.9-3.1-4.5-4.7c0.1-1,0.1-2-0.2-3
	c-0.7-1-0.7-2.2,0-3.2l0,0c0.4-0.3,1-0.4,1.5-0.4c1-0.1,0.7-2.8,2.3-1.4c1.2,1,1.6,2.8,0.8,4.2c-0.8,1.3-0.8,2.9-0.1,4.3
	c12.3,7.1,24.6,14.1,39,16.2c3.8,0.4,7.7,0.4,11.5,0.1c1.2-1.6,0.3-3.3,0-4.9l0,0c-0.3-0.7-0.3-1.4,0-2.1l0.1-1.1
	c0.8-2.6-0.1-5.3,1-7.9c0.5-1.3,0.7-3,2.5-3.1s2.2,1.6,2.8,2.9c0.2,0.4,0.3,0.8,0.4,1.2c0.2,1.1,0.6,2.6-0.6,3s-1.6-0.9-2-1.9
	c-0.2-0.4-0.3-1.2-1-0.7s-0.4,1.1-0.5,1.7c-0.1,0.3-0.1,0.6-0.2,0.9c-0.8,3.7-0.1,7.4,0.5,11.1c0.1,1.1,0.7,2.1,2,2s1.2-1.3,1.2-2.2
	c0.1-1.8,0-3.6-0.3-5.3c-0.3-1-0.3-2.1-0.1-3.1c0.2-0.7,0.5-1.4,1.4-1.4c0.6,0.1,1.1,0.7,1.1,1.3c0.4,1.6,0.7,3.2,0.8,4.9
	s0.9,2.4,2.6,2.1c3.3-0.7,6.7-1.3,10-1.9c0.3-0.2,0.6-0.3,0.9-0.4c1.6-0.5,3.4,0,4.8-1.1l0.9-0.3c3.6-0.8,7.3-1.3,10.6-3
	c1-0.3,1.8-1,2.4-1.8c2-2.2,4.8-3.6,6.3-6.3c0.2-0.2,0.3-0.5,0.5-0.7c1.6-1.4,2.3-3.4,3.2-5.2c0.4-0.9,0.4-2.1,1.7-2.3
	c0.8,0.3,1.9,0.6,1.8-0.7c-0.3-5.6,1.5-11,0.8-16.6c-0.2-2-1.1-4.1,1.2-5.8v5.4c0,0.9-0.1,2.2,1,2.4c3.2,0.5,1.4,2.1,0.9,3.5
	c-0.3,3.6-1.1,7.1-1.6,10.6c0.6,1.3-1.9,2.8,0.3,3.9c0.3,0.1,0.5,0.2,0.7,0.4C234.2,193.5,232.4,195.4,233,196.1z"/>
<path class="st27" d="M152.4,122.4c9.2-2.7,18.8-3.7,28.3-3c0.4,0,0.7,0.4,1,0.6c-1.7,0.6-3.5,0.1-5.2,0.3c-1.3,0.1-1.8,0.5-0.7,1.7
	c0.8,1,1.5,2,2,3.2c1.7,3.3,1.3,5.7-1.1,7.5c-2.5,1.9-6.1,1.5-8.2-0.9c-2-2.3-4.6-3.8-7-5.6C158.6,123.9,155.4,123.4,152.4,122.4z"
	/>
<path class="st28" d="M133.2,153.9c-1.7-1.3-2.9-3-3.7-4.9c-0.4-0.8-0.9-2.3-1.3-2.3c-1.2,0-0.9,1.6-1.6,2.3
	c-0.1,0.2-0.3,0.3-0.4,0.5c-1.4-2-0.2-3.7,0.7-5.4s2.2-3.2,1.8-5.4c0-0.8,0.5-1.5,1.2-1.9c1.8,1.1,3.8,1.2,5.9,1.4
	c0.7,2.3,2.8,3.4,4.2,5.2c0.9,1.1,1.7,2.2,0,3.3c-1.7,0.4-2.7-0.7-3.9-1.6c-0.6-0.5-1.4-1.2-2.2-0.7s-0.5,1.7-0.2,2.6
	c0.5,1,1.1,2,1.8,2.9c0.5,0.9,1.5,1.8,0.7,3.1l0,0C135.4,154.4,134.3,153.9,133.2,153.9z"/>
<path class="st29" d="M233.6,197.4c0-0.2,0-0.4,0.1-0.6c0.5-0.6,0.1-1.3,0.5-1.9l0.2-0.7c0.2-0.2,0.3-0.2,0.5,0
	c-0.2,1.5,0.7,2.3,1.7,3.3c7.4,7.3,5.7,15.2-2.5,20.6c-1.2,0.8-1.9,2.3-3.5,2.4c-4.6,1.8-9.3,3.5-13.8,5.6c-1.5,0.7-3.1,0.1-4.3,1.3
	h-4.9c-1.1,0.6-2.3,0.7-3.5,0.3c-0.6-1.9,1-1.5,1.9-1.8c5.9-1.3,11.8-2.9,17.6-4.8c0.2-0.2,0.5-0.4,0.8-0.5c0.3-0.2,0.5-0.4,0.8-0.5
	c3.6-1.4,6.9-3.3,10-5.6c1.4-1.1,2.3-2.7,2.7-4.4c0.1-0.3,0.2-0.5,0.3-0.8s0.1-0.3,0.2-0.4c1.1-2.6,0.2-6.1-2.1-8.4
	C235.2,199.6,233.8,198.9,233.6,197.4z"/>
<path class="st30" d="M221.8,152.4c3.8,6.4,5.9,13.7,6.1,21.1c0.2,4.2,0,8.5-0.6,12.7c-0.6,0.3-0.1,1.9-1.5,1.1
	c-1.6-3.2,0.1-6.4,0.3-9.5c0.5-7.1-1.1-14.2-4.5-20.4c-2-3.7-4.5-7.8-10.1-8.6c-3.9-0.5-6.5-4.3-9.3-7.1c-0.1-0.3,0-0.6,0.2-0.8
	c0.5-0.3,1.2-0.5,1.8-0.5c0.5-0.1,0.9-0.1,1.4-0.1c0.3,0,0.6,0.1,0.8,0.3c2.5,3.6,5.7,5.8,10.4,4.8c0.3,0,0.6,0.1,0.8,0.3
	C219.4,147.6,220.2,150.3,221.8,152.4z"/>
<path class="st31" d="M152.4,122.4c6.8-0.2,11.5,3.8,15.9,8.2c2.4,2.4,5.3,3.3,7.7,1.6c2.9-2.1,2.1-4.6,0.8-7.1
	c-0.5-0.7-0.9-1.4-1.2-2.1c-0.4-1-2.5-1.2-1.4-2.6c0.7-0.9,2.1-0.3,3.2-0.4h4.3c0.2,0.1,0.3,0.2,0.2,0.3s-0.1,0.1-0.1,0.2
	c-1.6,0-3.1,0-4.7,0.1c-0.3,0-1.2-0.5-0.8,0.6c0.1,0.3,0.7,0.4,1,0.7c1,1.9,2.1,3.7,2.2,6c0.3,2.6-1.1,5.2-3.5,6.3
	c-2.5,1.2-5.5,0.6-7.4-1.4c-2.6-2.4-4.9-5-8.2-6.4c-1.2-0.6-2.5-0.8-3.7-1.4l0,0l-0.6-0.6c-3.5-1.6-6.5-0.3-9.3,1.9
	c-0.1,0.2-0.3,0.3-0.5,0.2c0,0-0.1,0-0.1-0.1l-0.2-0.2c1-1.8,2.9-2.3,4.6-3c0.4-0.6,1.3,0,1.7-0.6L152.4,122.4z"/>
<path class="st32" d="M204.7,141.1h-1.8c-0.4-0.4-1.2,0-1.5-0.8c0-0.3,0.1-0.6,0.4-0.8c0.5-0.2,1-0.4,1.5-0.5
	c1.4-0.2,2.6-0.8,2.9-2.3c0.3-1.5-0.3-3-1.5-3.9c-1.1-1-2.4-1.8-3.9-1.3s-1.4,2.1-1.4,3.4c0,0.8,0.3,1.6-0.4,2.3
	c-1.7-0.1-1.5-1.2-1.3-2.3c-1-3.3,2.1-4.7,3.3-7.1c2.3,0.9,4.3,2.2,6.2,3.8c0.7,1,1.5,2,2.5,2.8c1,0.7,1.5,2,1.3,3.2
	c-0.1,1.9,0.5,3.6,3.1,3.8c1.1-0.1,2.1,0.7,2.2,1.8l0,0c0,0.3,0,0.7-0.2,1c-2.8,1.2-5,0.7-7.4-1.7c-0.8-0.8-1.3-2.2-2.8-2.2
	l-0.6,0.1C205.2,140.6,205,140.9,204.7,141.1z"/>
<path class="st33" d="M146.1,126.1l0.8,0.1c-2.5,2.4-5.6,4-8.1,6.4c-1.1,1.1-1,0.9,0.1,1.3c1.4,0.4,2.7,0.9,4,1.5
	c1,0.4,1.6,1.5,1.3,2.6c-0.3,1.3-1.3,1.4-2.4,1.4h-0.3c-1.2,0.2-2.8-0.6-3.4,0.7c-0.2,0.5,1,1.8,1.8,2.6c3.2,3.2-0.4,5.4-1.2,7.9
	c-1.2-1.8-0.6-3.1,1.1-4.1c1.5-3.5-1.6-4.4-3.5-5.6c-1.4-0.9-1.8-1.5-0.6-2.7h6c0.4,0.2,0.9,0.2,1.2-0.1c1.1-2.9-1.5-2.4-2.8-3
	s-4.1,0.5-4.4-1c-0.4-1.8,2.2-2.7,3.6-3.7C141.4,128.7,143.3,126.7,146.1,126.1z"/>
<path class="st34" d="M194.8,119.1c0,1.2-0.5,1.4-1.4,1c-2.9-1.3-6-2.3-9.1-3c-0.5-0.1-1.5-0.2-0.7-1.1c2-2.3,4.7-1.8,7.2-1.4
	S194.3,117.1,194.8,119.1z"/>
<path class="st35" d="M216,144.1c0-1-0.7-1.8-1.6-2.1c-3.8-0.8-4.3-1.4-3.9-5.4c0.1-1.1-0.8-1.4-1.2-2c-0.7-1-2-1.5-2.1-3
	c4.9,3.8,8,9,11.2,14.2c-0.7,0.6-0.9-0.2-1.2-0.5l0,0C216.6,145.1,216,144.7,216,144.1z"/>
<path class="st36" d="M230.1,189.9c0.4-2,1.5-11.1,2.4-11.2c0.9,0.3,1,0.7,1.2,1.8s-1.5,13.9-2.1,13.8c-0.3,0-1.7,0.8-2,0
	C229.2,193.3,230,190.5,230.1,189.9z"/>
<path class="st37" d="M226.2,187.5l1.2-1.3c0.5,1.6-1,2.8-0.8,4.3c-1.5,2.8-1.9,6.2-4.8,8.2c-0.5-0.4-0.7-1.1-0.4-1.7
	C223.6,194.1,223.8,190.3,226.2,187.5z"/>
<path class="st38" d="M217.2,145.4l1.2,0.5c1.5,1.9,2.6,4,3.3,6.3C219.2,150.4,218.6,147.7,217.2,145.4z"/>
<path class="st26" d="M227.4,161.1c-0.6,0.1-0.6-0.4-0.6-0.7c0-0.6-0.3-1.4,0.4-1.9c0.8,0.4,1.1,1.3,0.7,2
	C227.8,160.8,227.7,161,227.4,161.1L227.4,161.1z"/>
<path class="st39" d="M234.8,194.3h-0.4c-0.1-1-0.4-2,0.5-2.9C234.9,192.3,234.8,193.3,234.8,194.3z"/>
<path class="st27" d="M181.8,120.5c-0.1-0.2-0.1-0.3-0.1-0.5c0.9,0,1.8-0.4,2.4,0.6L181.8,120.5z"/>
<path class="st27" d="M152.3,122.4c-0.4,0.6-1.1,0.8-1.7,0.6C151,122.5,151.6,122.2,152.3,122.4z"/>
<path class="st39" d="M234.2,194.9c0.2,0.7,0,1.4-0.5,1.9c-0.1-0.2-0.1-0.5-0.2-0.7L234.2,194.9z"/>
<path class="st40" d="M75.5,78.2c0.4,2,0,2.7-2.4,3c-3.2,0.3-6.3,1.6-9.5,2.5c-2.1,1.6-5,1.7-6.6,4c-3.3-1.4-6.7-0.7-10-0.3
	c-2.8,0.3-5.5,0.8-8.3-0.3c-0.3-0.3-0.4-0.6-0.3-1c0.2-2.2-0.6-4.5,0.2-6.8c0.3-1.2,1.1-2.2,2.2-2.8c1.4-0.5,1.4,1.2,1.9,1.9
	c2.8,4,7,4.4,11.2,4.8c1.5,0.1,1.7-0.8,1.4-2c-1.4-1.4-3.3-0.9-4.9-1.6c-1.8-0.8-4.7-0.8-3.2-4.2c0.1-0.3,0.1-0.8-0.2-0.9
	c-3.6-1.3-1.8-4.1-1.8-6.5c1.9-4,1.8-4.4-1.4-7.6c-1-1-2.7-2-2.1-3.5c0.6-1.5,2.6-0.8,3.9-0.8s3.2-0.7,3,1.8
	c0.4,2.5,1.7,1.3,2.9,0.8c3.9-2.1,8.3-3.1,12.8-2.9c1.9,0.1,3.4,1.5,5.3,1.4c2-1.2,0.8-2.1-0.4-2.9c-2.5-1.7-2.5-2,0.2-3.4
	c0.4-0.2,0.8-0.7,1.3-0.9c1.2-0.3,1.9-2.5,3.4-1.3c1.2,0.9,0.2,2.5,0,3.8s-0.5,2.6-0.8,3.9c-0.8,2.8-0.6,5,2.6,6.1
	c0.6,0.6,0.3,1-0.2,1.5c-1.2,0.9-4-0.2-3.6,2.8c0.2,0.3,0.4,0.6,0.7,0.8c0.6,0.3,1.3,0.4,2,0.4c1.5,0.2,2,1.3,2.4,2.6
	c0.6,1.8,0.7,3.6-0.9,5.1C75.6,76.3,76,77.3,75.5,78.2z"/>
<path class="st23" d="M35,86.2l0.6-0.6h0.5c1.3,3.1,3.5,3.7,6.8,3c2.9-0.6,6-0.2,9-0.8c1.7-0.3,3.4,0.3,4.6,1.5
	c1.4,1.3,2.6,1.2,3.2-0.8c0.5-1.5,1.8-2.6,3.4-2.8c4.2-0.8,8.3-3,12.8-1.5c0.7,0.2,1.4-0.2,2.1-0.2c0.3,0,0.7,0.2,0.9,0.4
	c0.2,0.5,0.3,1,0.5,1.5c2,4.3,1.2,5.1-2.9,7c-7.1,3.4-14.5,1.9-21.8,2.4c-1.3-0.1-2.7-0.1-4,0c-5.2,0.9-9.5-1.7-13.9-3.8
	c-1.6-0.8-3.2-2.1-2.5-4.5C34.4,86.6,34.7,86.4,35,86.2z"/>
<path class="st41" d="M78,84.3c-0.5,0.9-1.5,1.7-2.3,1.1c-3.5-2.9-6.7,0.2-10,0.5c-2.6,0.3-5.4,0.8-5.9,4.6c-0.2,2-2.1,1.5-3,0.3
	c-1.7-2.3-4.1-2.3-6.4-1.9c-3.5,0.6-7,0.2-10.5,1s-4.1-1.6-3.9-4.3c1-0.8,1.7,0,2.4,0.5c0.1,0.3,0.2,0.5,0.2,0.8
	c2.5,0.8,5.1,0.9,7.7,0.4c3.7-0.6,7.3-0.9,11,0.2c0.4-4.2,4-2.9,6.3-3.8c3.9,0,7.8-0.4,11.6-1.2c0.9-0.2,2-0.9,2.6,0.5
	C78.4,83.3,78.4,83.7,78,84.3z"/>
<path class="st42" d="M45.6,68.1c0,1-0.1,2.1-0.3,3.1c-0.4,1.4,0,1.8,1.4,2c2.1,0.3,2.7,1.8,1.2,3.2c-1.2,1.2-0.6,1.3,0.3,1.8
	c1.4,0.7,2.9,1.2,4.4,1.5c1,0.2,2.4,0,2.8,1.5c-1.8-0.4-3.7-0.8-5.4-1.3c-5.2-1.6-6.6-3.9-5.6-9.3c0.3-1.3,0.7-2.6,1-3.9
	C45.8,67,45.9,67.6,45.6,68.1z"/>
<path class="st43" d="M45.6,68.1c-0.1-0.5-0.1-0.9-0.2-1.4c1-2.3,1-4-1.5-5.5c-1.7-1-3.9-3.2-3.5-4.7c0.6-1.8,3.5-0.5,5.3-0.8
	c0.8-0.1,1.7-0.1,2.5-0.1s1.9-0.2,2.1,0.8s-1,1.1-1.6,1.5c-1.7-2.3-4.1-1-6.1-1c-0.8,0-0.2,1,0.1,1.5c0.6,0.9,1.4,1.8,2.3,2.5
	C48.3,63.2,47.3,65.6,45.6,68.1z"/>
<path class="st44" d="M74.4,52.5c0-0.8,0-1.7-0.1-2.5c0-0.7-0.2-1.4-1-1c-1.7,0.9-3.3,2-4.8,3.3c-0.9,0.9,0.5,1.1,1.1,1.5
	c2.2,1.3,2.2,2.2,0.2,3.5c1.7-2.6-0.9-2.8-2.1-3.1c-2.9-0.9-1.9-1.8-0.2-2.9l0,0c0.3-0.5,0.9-0.4,1.4-0.7c1.6-0.2,2.5-1.7,3.9-2.3
	c0.9-0.3,1.8-1.6,2.7-0.6c0.7,0.8,0.2,1.9-0.1,2.9C75,51.2,74.6,51.8,74.4,52.5z"/>
<path class="st45" d="M28.7,62.3c0.4-1.2,0.8-2.7,2.3-2.2c1.3,0.4,0.8,1.9,0.5,2.7c-1.5,3.9,0.7,6.7,2.7,9.6
	c0.4,0.6,1.3,0.9,0.8,1.5s-1.3,0.1-1.9-0.3c-1.3-0.7-2.5-1.9-3.2-3.2c0.7-2.3-0.7-4.5-0.2-6.8C30,62.8,29.2,62.7,28.7,62.3z"/>
<path class="st46" d="M28.7,62.2c0,0,1.1-1.3,1.8,0.7c0.7,2-0.4,5,1.3,7.2c0.8,1,0.4,1.3-0.7,0.5c-0.3-0.2-1,0-1.1-0.4s0,0,0,0
	c-0.6-0.9-0.3-2.3-1.3-3C27.9,65.7,27.9,63.8,28.7,62.2z"/>
<path class="st47" d="M39.4,59.1c0.8,0.1,4.3,5.9,3.9,6.8c-0.4,0.9-0.9,0.8-1.4,0.2c-1.6-1.8-2.3-4.1-3.2-6.2
	C38.5,59.6,38.5,58.9,39.4,59.1z"/>
<path class="st48" d="M118,199.3c-0.4,2-1.4,3.8-2.8,5.3c-2.2,2-0.4,4.4,0.9,6.1c4.2,5.4,9.7,8.5,16.4,10.1
	c4.6,1.1,9.1,2.7,13.7,3.7c10,2.1,20,3.6,30.3,2.7c4.5-0.4,9.3,0.1,13.9,0.3c1.2-0.4,2.5-0.4,3.8-0.1c0.1,1.4-0.9,1.5-1.7,1.5
	c-1.5,0.2-3,0.6-4.4,1.2c-8.8,0.5-17.5,0.4-26.3,0.1c-2.6-1-5.4-1.5-8.2-1.6c-5.2-0.6-10.4-1.5-15.5-2.6c-2.2-0.4-4-2.2-6.4-2.1
	c-2.3-1.1-4.7-2-7.2-2.8c-4.5-1.6-7.9-4.9-10.9-8.5c-1.2-1.2-1.8-2.9-1.6-4.6c0.1-0.8-0.2-1.7-0.7-2.3c-0.6-0.7-0.6-1.7-0.1-2.5
	c1.6,0.1,2.4-1.1,3.4-2.2C115.3,199.8,116.6,199.2,118,199.3z"/>
<path class="st49" d="M128.6,138.6c2.8,2,0,3.7-0.7,5.1c-1,1.8-1.6,3.7-1.8,5.8c-3,8.6-4.5,17.7-4.4,26.8c0.1,5.6,0.8,11.1,2,16.6
	c0.5,2.5-1.8,4.5-0.8,6.9c-1.3-1.2-0.8-2.7-0.5-4.1s0.7-2.8-0.3-3.8c-1.2-1.3-1.2,0.9-2.1,1.1c-0.1,0-0.1,0-0.4,0
	c-0.5,0-0.8,0.1-0.8,0.1c-0.1-0.1,0.8-0.5,1.2-1.2c0.6-0.9,0.3-2,0.3-2.4c-1.1-7.5-1.6-15.1-1.2-22.7c0.3-8.2,2.8-15.9,6.4-23.2
	c0.1-0.2,0.3-0.4,0.4-0.6C126.4,142.7,128.3,139,128.6,138.6z"/>
<path class="st50" d="M111.2,203.1c0.2,0.6,0.4,1.2-0.1,1.7c-0.6,1-1.8,0-2.4,0.7l-1.2,0.7c-0.7,0.3-1.3,0.7-1.9,1.1
	c-0.7,0.5-1.8,1.1-1.2,2.2c0.7,1.3,1.4,0.5,2.1-0.2c0.3-0.4,0.8-0.4,1.2-0.1l0,0c0.1,0,0.1,0,0.1,0.1l0,0c0.3,0.4,0.3,1-0.1,1.4
	c-0.8,0.8-1.4,1.9-2.8,1.8c-1.4-0.2-2.5-1.1-3-2.4c-0.6-1.2-0.2-2.6,0.9-3.4C105.3,204.7,107.8,202.9,111.2,203.1z"/>
<path class="st28" d="M127.3,141.1l-0.6,0.7L127.3,141.1z"/>
<path class="st28" d="M126.1,142.9l-0.4,0.6L126.1,142.9z"/>
<path class="st51" d="M78,84.3L77.7,83l0.4-1.9c0.2-0.2,0.3-0.2,0.4,0.1c0,0.9,0.4,1.8,1.1,2.4c5.5,4.8,5.4,6.2-0.4,10.7h-3
	c-0.3-1.1,0.4-1.4,1.2-1.8c4.4-2.3,4.6-2.8,2-6.8c-0.3-0.4-0.3-1-0.7-1.3L78,84.3L78,84.3z"/>
<path class="st52" d="M79.3,59.3c-0.1,0.6-0.1,1.2-0.4,1.5c-0.6,0.5-1.1-0.1-1.6-0.4c-1.1-0.7-2.1-1.5-1.5-3
	c0.8-2.1,0.1-4.6,1.7-6.4C78.9,53.6,78.3,56.6,79.3,59.3z"/>
<path class="st53" d="M76.8,70.6c-0.6-0.9-0.9-2.2-2.5-2c-0.1-0.1-0.1-0.3-0.2-0.4c0.1-0.3,0.2-0.5,0.3-0.8c1.2-1,0.9-2.4,1-3.7
	c0.2-0.4,0.5-0.8,0.7-1.2c1.2,0.6,1.8,1.9,2.6,2.9c0.8,2-0.7,3.5-1.3,5.2C77.3,70.7,77,70.7,76.8,70.6z"/>
<path class="st54" d="M76.8,70.6h0.7c0.5-0.8,1.6-1,2.4-0.6c0.6,0.4,0.5,1.2,0.1,1.9c-0.9,2.5-3.7,3.7-4.3,6.4
	C75,75.5,78.3,73.3,76.8,70.6z"/>
<path class="st55" d="M80.1,71.8c0.1-2.3-1.7-1.1-2.7-1.2c-1.5-2.2,2-3.2,1.3-5.2C79.9,67.3,81.5,69.3,80.1,71.8z"/>
<path class="st23" d="M78.6,81.2c-0.1,0-0.3,0-0.4-0.1c0-1.6-1.1-3.6,1.5-4.1C78.8,78.1,78.4,79.7,78.6,81.2z"/>
<path class="st2" d="M68.8,50.5l-1.4,0.7C67.6,50.8,68.2,50.5,68.8,50.5z"/>
<path class="st56" d="M131.2,222.9c2.8-0.9,5,1.1,7.2,2c6.9,2.6,14.4,1.8,21.4,3.6c0.5,0.2,0.9,0.4,1.4,0.6c-2.7,0.5-5.4,0.5-8.1,0
	c-4.7,0.5-8.9-3.2-13.7-1.9c-2.8-0.5-5-2.7-8-2.6c-0.9,0-1.6-0.9-2-1.8C130,222.5,130.7,222.6,131.2,222.9z"/>
<path class="st57" d="M131.2,223h-1.9c-7.4-0.7-12.4-5.5-17-10.6c-0.8-1.1-1.1-2.5-0.9-3.8c0.2-2.3-1-2.9-2.8-3.1
	c0.6-0.9,1.6-0.6,2.4-0.7c0.8,0.2,1.4,0.6,1.3,1.5c-0.2,6.4,5.2,8.6,8.9,12.2C124.1,221.2,128.6,220,131.2,223z"/>
<path class="st58" d="M153,229.3h35.7c2.5-1,5.2-0.5,7.7-0.9c1.5,0.1,3-0.2,4.4,0.5l0.4,0.4c-1,1-2.3,0.7-3.5,0.6
	c-2.9-0.1-5.8,0.5-8.4,1.9c-8.7-0.3-17.4,0.8-26-0.7C159.8,230.5,156.3,230.3,153,229.3z"/>
<path class="st21" d="M78.6,84.3c5,3.9,4.4,6.6-0.6,8.5c-0.8,0.2-1.5,0.8-1.8,1.5l0,0c-3.2,1.2-6.4,1.9-9.8,2.2
	c-1.1,0.1-2.3-0.3-3.3,0.3H51.2c-1.6-0.7-3.2-0.2-4.9-0.3c-4.2-0.3-7.9-2.3-11.7-3.7c-1.5-0.6-2.5-2-2.6-3.6
	c-0.3-1.9,0.6-2.7,2.9-2.3c-0.4,2.2,1.1,3.4,2.7,4.3c10.5,5.7,22,2.7,33,3c2.5,0.1,5-2,7.8-2.7c1-0.3,3.2-2.3,0.7-4
	C77.6,86.3,78.6,85.3,78.6,84.3z"/>
<path class="st59" d="M34.9,86.7c-1.1,0-2.4,0.1-2.3,1.4c0,1.8,1.1,3.4,2.8,4.1c4.8,1.9,9.4,4.1,14.7,4c0.4,0,0.7,0.4,1,0.6h-7.5
	c-3.7,0.2-6.4-2.5-9.8-3.5c-1.7-0.5-3.6-2.8-3-4.6s0.6-5,3.9-5.2c0,0.9,0.1,1.7,0.2,2.6C35,86.3,34.9,86.6,34.9,86.7z"/>
<path class="st51" d="M63,96.7c4.4-0.6,8.6-2.6,13.1-2.5c-1.7,3-4.8,1.8-7.2,2.4C67,97.2,65,96.7,63,96.7z"/>
<path class="st58" d="M203.6,227.4h3.8c-1.8,1.4-4,2.1-6.3,1.9l0,0c-0.4-1.1,0.4-1.7,1.2-2.2C202.8,226.9,203.3,227,203.6,227.4z"/>
<path class="st60" d="M89.2,150.1c-0.1,0.7-0.4,1-0.8,0.9c-0.3-0.2-0.6-0.5-0.7-0.9c0.1-0.4,0.4-0.6,0.8-0.7
	C88.8,149.6,89,150.1,89.2,150.1z"/>
<path class="st61" d="M226.2,187.5c-0.9,3.1-1.4,6.4-3.7,9c-0.6,0.6-0.9,1.5-0.6,2.3l0,0c-3.1,3.6-6.8,6.5-11,8.7
	c-6.4,1.9-12.7,3.8-19.3,4.7c-0.5,0.1-1,0.3-1.4,0.6c-7.1,2.1-7.1,2.1-8.5-5.1c-0.5-3-1.3-5.8-2.5-8.6c-0.4-1-0.6-2-1.8-2.2
	s-1.6,0.9-2,1.9c-0.2,0.5-0.6,0.9-1.1,1.1c-1.9,0.9-1.5,2.9-1.7,4.3c-0.5,2.5-0.5,5.2,0,7.7c0.9,3.6-0.8,3.8-3.4,3.5
	c-2.2-0.2-4.5,0.5-6.7-0.6c-0.7-0.7-1.8,0-2.5-0.6c0,0-12-9.3-14.8-16c-2.4-5.9-5.9-11.7-4.9-18.6c0.1-1.6,0.2-3.1,0.1-4.7
	c0.1-5.1,1.4-6.1,6.3-5.1c3,0.6,5.9,0.9,8.7-1c3.3-2.3,5-6.2,4.5-10.1c-0.2-1-0.7-2-0.3-3c2-1.6,4.5-2,6.6-3.4
	c0-0.2,0.1-0.4,0.1-0.6c0.1-0.3,0.3-0.5,0.5-0.6l0,0c0.5-0.6,0.3-1.4,0.3-2.1c0.1-1.4,0.8-1.5,1.9-1.1c5,2,10.6,2.2,15.7,0.4
	c0.3,0,0.6,0,0.9,0.1c0.2,0.2,0.4,0.4,0.6,0.6l0.2,0.3l0.5,0.6c0.1,0.1,0.2,0.1,0.3,0.2c0.3,0.1,0.7,0.2,1,0.2
	c0.2-0.1,0.4-0.1,0.6-0.2l0.5-0.4l0.2-0.2c0.1-0.2,0.3-0.3,0.5-0.5l0.2-0.2c0.2-0.2,0.3-0.4,0.5-0.5l0.3-0.2
	c0.4-0.4,0.9-0.6,1.5-0.6c1.6,0.3,3.2-0.1,4.4-1.1c0.9-0.5,0.8-1.7,1.6-2.3c0.8-0.2,1.2-1,1-1.7c0,0,0,0,0-0.1s0-0.1-0.1-0.2
	c-0.2-0.9-0.4-1.8,0.6-2.4c0.4-0.1,0.9,0,1.1,0.4c0.1,0.6,0.7,0.8,1,1.2c1.7,0.4,2.4,1.9,3.6,2.9c2.7,2.2,5.3,4.3,9.2,4.8
	c1.4,0.2,5.3,0.7,4.3,4.5c-0.1,0.2,0.2,0.6,0.3,0.8c5.8,7.2,7.8,14.8,7.2,24.1C226.6,181.4,225.4,184.4,226.2,187.5z"/>
<path class="st62" d="M159.8,155.6c0.5,2.5,1.1,4.7,0.3,7.4c-1.9,6.2-6.2,9.3-12.8,8.1c-0.9-0.1-1.8-0.3-2.7-0.6
	c-2.5-1-3.4,0.6-3.5,2.5c-0.2,6.6-0.6,13,2.2,19.5c1.9,4.4,4.5,8.3,6.7,12.5c1.3,1.9,3,3.5,5,4.6c1.7,1.1,3,2.7,3.6,4.7l-7.5-1.9
	c-3-3.6-5.4-7.6-8.4-11.1c-1-1.1-1.7-2.3-2.2-3.7c-3.2-9.7-5.6-19.5-3.2-29.8c0.2-0.7,0.6-1.2,1.1-1.7c1.7-0.6,3.1,0.2,4.4,1
	c2.3,1.5,5,2.2,7.7,2.1c4.1,0.1,7.5-3.2,7.6-7.3v-0.1c0-0.6-0.1-1.2-0.2-1.8c-0.3-0.9-0.4-1.9-0.4-2.8
	C157.8,155.9,158.3,154.9,159.8,155.6z"/>
<path class="st63" d="M138.1,167.4l-0.6,9.3c-0.6,7.2,1.8,14,4.2,20.5c1.5,4.2,5,7.7,8,11.3c1,1,1.6,2.4,1.6,3.8
	c-1.3-0.3-2.4-1.2-3.8-1.2c-0.9,0.1-1.7-0.5-1.8-1.3v-0.4c0.1-1.6-0.9-2.4-1.8-3.4c-5.9-6.8-8.2-15.1-8.8-23.8
	c-0.8-9,0.3-18,3.1-26.6c0.1-0.4,0.3-0.9,0.6-1.2c2-0.2,1.7-3.8,4.4-3.1c1.9,2.2,1.8,2.9-0.7,4.8c-0.3,0.2-0.6,0.3-0.9,0.4
	c-2.5,1.8-2.8,4.5-3.2,7.2C138.1,164.7,138.4,166.1,138.1,167.4z"/>
<path class="st64" d="M141.2,155.6h0.6c0.4-0.3,0.9-0.4,1.3-0.1c0.8,1.4,0,2.6-0.3,3.9c-0.8,3.6,1.4,7.2,4.9,8.2
	c3.6,1.2,6.6,0.1,8.3-3.3c1.1-2.1,0.6-6.5-0.8-8c-2.7-2.7-5.9-3.3-8.9-1.6c-0.4,0.3-1,0.5-1.5,0.4c-1.7-4.3-1.3-5.2,3.2-5.7
	c1.2-0.2,2.3-0.9,3-2c0.9-1.1,1.5-2.5,2.5-3.5c0.4-0.4,1.1-1.7,2-0.2v2.5c0.6,0.6,0.8,1.4,0.8,2.2c0.8,4.4,3.3,5.7,7.5,4.1
	c0.5-0.2,1-0.3,1.5-0.3l0.8,0.1c-1.4,2.3-3.6,3.1-6.2,3.1c-1.8,0.2-1.8,1.2-1.3,2.6c1.6,4.5,0.1,8.2-3.7,10.7s-7.7,1.2-11.4-0.6
	c-1.6-0.8-3-1.8-4.8-2.1C137.4,162.1,139.2,158.7,141.2,155.6z"/>
<path class="st65" d="M165.3,152.4c-1.7,1.9-4.5,2.4-6.8,1.3c-3.2-1.5-3.3-5.4-3-7.4s4.1-5.3,6.7-4.1c2.8,1.6,4.3,4.7,3.8,7.9
	C165.8,150.7,165.6,151.6,165.3,152.4z"/>
<path class="st66" d="M185.6,149.3v-0.6c-0.2-1.2-0.5-1.9-2.1-1.5c-3.5,0.9-7.2,0.4-10.8,0.3c-2.4,0-4.7-0.9-6.5-2.6
	c-1-1.5-2.2-2.8-3.7-3.8c-0.4-0.3-1.2-0.4-0.7-1s0.9,0,1.4,0.2c4.8,3.3,10.4,3.6,15.8,3c3-0.3,6.7,1.6,9.3-1.8
	c0.5-0.7,0.8,0.3,0.7,1c-0.1,1.6-0.6,3.1-1.4,4.4c0.4,0.8,0.6,1.9,1.8,0.9c0.7-0.5,1.3-1.2,2.3-1.2c0.3,0.1,0.5,0.3,0.5,0.6
	s-0.1,0.6-0.3,0.8l0,0l-0.6,0.6l0,0l-0.6,0.6l0,0l-0.6,0.6l0,0l-0.6,0.6l0,0c-0.8,0.4-1.7,0.4-2.5,0l0,0l-0.6-0.6l0,0
	C186,149.7,185.8,149.5,185.6,149.3z"/>
<path class="st67" d="M174.3,199.9c0.2-0.7,0.4-1.4,0.7-2c0.3-1,1.3-1.7,2.4-1.6c1,0,1.8,0.7,2,1.7c1.4,4.1,3,8.2,3.2,12.5
	c0.2,2.7,1,3.6,3.6,2.6c1.2-0.3,2.4-0.6,3.6-0.7c2-0.8,4.1-1.1,6.2-0.7c-1.6,2.4-4.3,0.7-6.3,1.7c-1.4,0.7-3.2,0.6-4.8,1.1
	c-2.1,0.6-2.9-0.5-3.2-2.3s-0.5-3.5-0.7-5.2c-0.1-0.4,0.1-1.2-0.7-1.1s-0.5,0.8-0.5,1.3c0.2,2.8,0.8,5.5,0.7,8.4
	c-0.1,1.4-0.6,2.5-2,2.8c-1.2,0.2-2.4-0.6-2.6-1.8c-0.9-4.3-2.1-8.6-0.4-13c1.6,2.6,0.2,5.5,1.1,8.2c0.4,1.2,0,3.6,1.3,3.4
	c1.9-0.3,0.6-2.4,0.6-3.7c-0.1-2-0.6-3.9-0.8-5.8c-0.2-1.3-0.7-2.1-2.2-2c0-0.5,0-1.1-0.1-1.6c0-1.2,0.4-2.1,1.6-2.3
	c1.4-0.2,1,1.3,1.4,2s0,2.1,1.1,1.8c0.7-0.1,0.5-1.6,0-2.2c-0.8-1.2-0.5-3.7-2.3-3.7s-1.8,2.3-2.5,3.7c-1.1,2.1,0.1,6.3-1.3,8.3
	C173.1,207,173.5,202.6,174.3,199.9z"/>
<path class="st68" d="M166.2,144.9c5.5,2,11.5,2.5,17.3,1.3c2.2-0.4,3.2,0.2,2,2.5c-4.2,1.6-8.2,2.8-12.8,1
	c-1.3-0.5-2.9-0.5-4.4-1.1s-0.2,2.1-1.5,2.6C167.1,149.1,166.9,147,166.2,144.9z"/>
<path class="st69" d="M155.6,143.6c-2.8,0.3-2.5,3.3-4.1,4.7c-1.2,1.1-1.9,2.1-4,1.8c-4.2-0.6-2.8,2.6-2.5,4.7
	c-0.4,0.9-1,1.3-1.9,0.6h-1.3c2.2-1,2.3-2.5,1.3-4.4c1.2-1.7,1.9-3.9,4.7-3.9c1.4,0,1.2-2,2.2-3c2.4-2.4,6.3-1,8.6-3.5L155.6,143.6z
	"/>
<path class="st70" d="M139.8,146.4c-0.8,1.2-1.2,2.6-1.1,4.1l-2.5,2.5c-0.3-2.1-2-3.3-3-5.1s-1.4-3.4-0.2-4.6
	c1.5-1.3,2.9,0.2,3.9,1.4C137.5,145.6,138.6,146.2,139.8,146.4z"/>
<path class="st71" d="M191.8,146.7c-0.7,0.6-1.4,1.2-2,1.9s-1.4,1.5-2.4,0.8c-1.3-0.8-0.5-1.7,0.1-2.6c1.8-0.4,2.1-1.9,2.2-3.3
	c0.3-2.9,1.5-2.6,3.3-1.2c1.3,0.1,2.7,0.3,4,0.6c0.9,0.3,1.5,1.2,1.4,2.1c0,1.2-0.9,1.2-1.7,1.5
	C195.1,147.4,193.3,146.5,191.8,146.7z"/>
<path class="st72" d="M156.8,124.9c4.9,0.3,8.3,3.3,11.4,6.7c1.4,1.7,3.5,2.7,5.7,2.6c4-0.3,6.2-3.8,5.2-7.8
	c-0.4-1.6-1.8-2.8-1.7-4.6c4,4.1,3.4,10.8-1.2,13c-2.3,1.2-5.1,0.8-7-1C165.5,130.2,161.3,127.2,156.8,124.9z"/>
<path class="st73" d="M191.8,146.7c0.6-2.1,1.9-0.5,3-0.6s2.8,0.9,3.1-0.9c0.2-1.6-1.4-1.4-2.5-1.5c-0.9,0-1.8-0.4-2.3-1.2
	c-0.8-1.9-1.4-3.4,1.9-3.2c2.9,0.2,1.9-2.9,3.1-4.2c0.1,1,0.2,2,1.4,2.2l0.2,0.4v0.9c0,0.4-0.1-0.1-0.1,0.3c0.3,2.5-0.3,4-3.4,2.7
	c1.2,0.9,3,0.9,2.7,2.8c-0.1,1,0.3,2.2-1.2,2.5c-1.8,1.4-3.7,0.5-5.6,0.6L191.8,146.7z"/>
<path class="st70" d="M133.2,153.9c1,0.1,2.1-0.2,2.9-0.8C135.6,154.9,134.4,154.5,133.2,153.9z"/>
<path class="st69" d="M138.6,154.4l-0.6,1.2C137.3,154.6,138.3,154.6,138.6,154.4z"/>
<path class="st72" d="M156.2,124.4l0.6,0.6L156.2,124.4z"/>
<path class="st68" d="M166.8,151.1l-0.5,0.6L166.8,151.1z"/>
<path class="st74" d="M203.6,227.4h-1.2c-0.9,0.6-2.1,1-3.2,0.9c-1.6-0.2-3.5,0.5-4.9-0.9h-3.8c3.6-1.4,7.4-1.7,11.1-2.1
	c5.9-0.7,11.2-3.5,17-4.4c2.1-0.4,4.4-0.1,6.2-1.5c0.3,0.3,0.3,0.9,0,1.2l0,0c-0.2,0.2-0.6,0.2-0.7,0.6c-3,2-6.5,2.7-9.9,3.7
	S207.2,226.6,203.6,227.4z"/>
<path class="st75" d="M224.8,220.6v-1.2c3.7-2,6.9-4.9,10.2-7.3c2.6-1.7,3.3-5.3,1.5-7.9l0,0c-0.2-0.3-0.4-0.6-0.7-0.8
	c-1.1-1.2-2.4-2.3-3.5-3.5c-0.8-0.8-0.8-1.4,0.5-1.7c3.3,1.4,5.7,4.4,6.2,8c0.3,1.1,0.1,2.3-0.6,3.2l0,0l-0.6,0.6
	c0.7,4.8-3.6,6-6.3,7.7C229.8,218.9,227.6,220.9,224.8,220.6z"/>
<path class="st39" d="M238.7,209.3c1-5.2-2-8.4-5.6-11.3l0.6-0.6c2.7,1.7,4.8,4.2,5.8,7.2C240,206.4,240.6,207.9,238.7,209.3z"/>
<path class="st37" d="M196.2,211.7c-2.1,0.1-4.1,1.1-6.2,0.7c1.6-2.5,4.5-1.5,6.7-2.1c4.8-1.2,9.5-2.9,14.4-3.8l0.3,0.4
	c-0.6,1.7-2.2,1.6-3.5,1.9c-2,0.5-4.1,0.8-6.2,1.5h-0.2l-0.2,0.1C199.7,211.6,197.8,211,196.2,211.7L196.2,211.7z"/>
<path class="st37" d="M211,206.6c4-2.2,7.1-5.4,10.8-7.9c-1.3,2.9-3.9,4.5-6.3,6.3c-0.8,1.5-2.5,2.3-4.2,2L211,206.6z"/>
<path class="st67" d="M211.3,206.9l4.2-2c-0.5,3.2-3.6,2.7-5.5,3.6c-2.5,1.3-5.5,1.6-8.4,1.8C204.4,208.1,208.6,209.4,211.3,206.9z"
	/>
<path class="st76" d="M232,191.9c0.2,1.4,0.1,1.9-0.5,2.6c-0.6,0.7-2.2,0.6-2.1-1.1c0.2-0.9,0.5-1.8,0.9-2.6
	C231.5,189.6,232,191.9,232,191.9L232,191.9z"/>
<path class="st67" d="M196.2,211.7c1.6-0.8,3.3-1.2,5-1.3C199.8,212.6,197.8,211.6,196.2,211.7z"/>
<path class="st75" d="M224.3,221.1c-0.4-0.9,0.4-0.5,0.7-0.6L224.3,221.1z"/>
<path class="st39" d="M238.1,209.9l0.6-0.6L238.1,209.9z"/>
<path class="st38" d="M216.2,144.3l1.2,1.3c-4.1,2-9.2,0-11.2-5c1.3-1.2,1.9-0.2,2.6,0.8C210.3,143.9,213.4,145,216.2,144.3z"/>
<path class="st38" d="M202.3,141.1l-1.1-0.6c0.2-0.3,0.4-0.3,0.6,0l1.2,0.6H202.3z"/>
<path class="st38" d="M204.8,141.1l0.7-0.5L204.8,141.1z"/>
<path class="st24" d="M199.3,137.4l2.5,2.4v0.7h-0.6l-0.7-0.6c-0.7-0.4-1.5-0.8-1.3-1.8L199.3,137.4z"/>
<path class="st77" d="M199.2,137.4c0-0.2-1.4-4.3,0.1-6.1c1-1,2.6-1.2,3.8-0.5c2.1,0.9,3.9,2.4,4.2,5c0.4,3.1-1.7,4.6-5.5,4.1
	C200.6,139.6,199.5,138.6,199.2,137.4z"/>
<path class="st2" d="M57.4,87.3l-15.6,0.6c-1.2,0.1-2.3-0.3-3.1-1.2c4.4-0.3,8.8-0.4,13.2-0.9C53.8,85.6,55.8,86.2,57.4,87.3z"/>
<path class="st78" d="M55,71.1c-0.3,1.5-1.6,2.5-3.1,2.6c-1.5,0.2-2.9-0.9-3.1-2.4s0.8-2.8,2.3-3.1h0.4C53.4,68.2,54.3,69.6,55,71.1
	z"/>
<path class="st79" d="M75.4,63.7c1.2,1.8,1.4,3.4-1.1,4.4c-0.2-0.2-0.4-0.4-0.5-0.7c-0.1-0.4,0-1-0.7-1c-0.6,0.2-0.9,0.8-1.4,1
	C70.9,64.6,71.9,63.6,75.4,63.7z"/>
<path class="st80" d="M65.5,72.9c-0.9,0-1.7-0.2-1.6-1.3c0.1-1.1,0-2.3,1.4-2.4s1.6,1.3,1.9,2.3S66.4,72.8,65.5,72.9z"/>
<path class="st81" d="M71.8,67.5c0-0.9,0-1.8,1.2-1.9c0.6,0.4,1.1,1,1.3,1.7c0,0.3,0.1,0.6,0.1,0.8l0,0c-0.6,0.4-1.4,0.4-2,0
	L71.8,67.5z"/>
<path class="st79" d="M72.4,68.1h2c0,0.2,0,0.4-0.1,0.5C73.5,68.5,72.9,68.8,72.4,68.1z"/>
<path class="st82" d="M194.3,227.4h5c0,1.8-1.8,1.1-2.5,1.9h-8.1C190.1,227.1,192.6,228.7,194.3,227.4z"/>
<path class="st29" d="M196.8,229.3l2.5-1.9h3.2l-1.3,1.9H196.8z"/>
<path class="st83" d="M186.8,176.7c-0.2-1.7,0.8-2.6,2.1-2.2c1.9,0.5,4.8-0.5,5.3,2.6c0.6,2.8,0.6,5.8,0,8.6c-0.1,1-0.8,1.8-1.7,2
	c-2.6,0.2-5.3-0.4-6.8-2.4c-2.1-2.6-1.7-6.4,0.9-8.4C186.6,176.9,186.8,176.8,186.8,176.7C189.8,178.1,188.4,176.9,186.8,176.7z"/>
<path class="st84" d="M206.3,173.1c0.2-1.8-0.1-4.1,2.4-4.4c2.4-0.4,4.7,0.9,5.7,3.1c1.6,3-0.1,5-1,7.3c-0.4,0.9-1.3,1.4-2.3,1.3
	C207.6,180.5,204.9,176.3,206.3,173.1C207.5,174.2,207.8,173.5,206.3,173.1z"/>
<path class="st68" d="M199.2,138.1l1.3,1.8c-1.1,0.8-0.4,1.7,0,2.5c0.9,2.1,0.1,2.5-1.8,1.9c-0.6-1-1.6-1.6-2.7-1.9
	c-0.4-0.1-1.4-0.2-1-0.4c0.9-0.5,0.8-1.3,1.1-1.9c0.3-0.1,0.7,0,1,0.2c0.5,0.4,0.8,1.5,1.6,1.1s-0.1-1.2-0.3-1.9
	c-0.3-0.4-0.2-1,0.2-1.2c0,0,0.1-0.1,0.2-0.1C199,138.1,199.1,138.1,199.2,138.1z"/>
<path class="st68" d="M191.8,147.5c1.8-1.4,3.8,0.3,5.6-0.6c-1.5,2-3.6,1.4-5.6,1.2C191.8,147.9,191.8,147.7,191.8,147.5z"/>
<path class="st73" d="M191.2,148.6l0.6-0.6L191.2,148.6z"/>
<path class="st68" d="M185.6,149.3l0.6,0.6L185.6,149.3z"/>
<path class="st68" d="M189.8,149.9l0.6-0.6L189.8,149.9z"/>
<path class="st68" d="M186.2,149.9l0.6,0.6L186.2,149.9z"/>
<path class="st68" d="M189.3,150.5l0.6-0.6L189.3,150.5z"/>
<path class="st68" d="M190.6,149.4l0.6-0.6L190.6,149.4z"/>
<path class="st69" d="M141.2,155.6c-0.9,3.5-2.3,6.9-2.5,10.6l-0.6,1.3c-1.5-3.9-0.1-7.3,1.4-10.8
	C139.7,155.9,140.4,155.4,141.2,155.6z"/>
<path class="st85" d="M143.1,155.6l1.9-0.6c1.9-2.8,4.7-2.9,7.4-1.7s5,3.2,5.2,6.9s-1,6.6-4,8.1c-3,1.3-6.4,0.8-8.8-1.4
	c-2.4-1.7-3.5-4.8-2.7-7.7C142.3,157.9,142.6,156.7,143.1,155.6z"/>
<path class="st86" d="M175.6,203.6c0.6-0.6,0.2-2.1,1.6-1.9c1,0.2,0.9,1.3,1,2.1c0.6,3.4,1.1,6.7,1.6,10.1c0.2,1.3,0.1,3-1.7,3.1
	c-1.6,0.1-1.9-1.4-2-2.6C175.9,210.9,175.8,207.3,175.6,203.6L175.6,203.6z"/>
<path class="st87" d="M52.8,71.3c-0.3,0.2-0.6,0.4-0.9,0.5s-0.7-0.1-0.8-0.4c0,0,0,0,0-0.1c0-0.2,0-0.3,0.1-0.5
	c0.1-0.4,0.4-0.6,0.8-0.7C52.4,70.1,52.8,70.6,52.8,71.3z"/>
<path class="st88" d="M74.3,67.3c-0.8-0.2-1.3-0.9-1.3-1.7c0.6-0.5,1.2-0.8,1.8-0.1C75.4,66.2,74.5,66.7,74.3,67.3z"/>
<path class="st89" d="M186.8,176.7c1.3-2.1,3.2-1.3,5-0.9s1.1,1.8,1.4,3.1c0.5,1.9,0.5,3.9-0.1,5.8c-0.4,1.2-0.5,2.4-2,1.9
	c-1.3-0.4-2.8-1.8-2.2-2.9C190.6,180.6,188.6,178.8,186.8,176.7L186.8,176.7z"/>
<path class="st90" d="M206.3,173.1c0.6-0.4,1-1.1,1-1.8c0.2-1,0.7-1.8,1.9-1.6s0.9,1.1,1.1,1.9c0.5,1.6,1.2,3.1,2,4.6
	c0.5,1,1.3,1.9,0,2.6s-3.1,0.9-3.6-0.4C208,176.5,206,175.3,206.3,173.1z"/>
<path class="st91" d="M150,166.7c-4.5,0-6.3-1.7-6.3-5.7c0-4.4,1.9-6.2,6.3-6.2s6.3,1.7,6.2,6.1C156.1,164.9,154.1,166.7,150,166.7z
	"/>
<path class="st92" d="M154.3,160.9c0,1.9-3.5,5.5-5.1,4.9c-2.2-0.8-3.9-2.9-3.4-5s0.8-5.2,4.1-5.3
	C152.4,155.5,154.3,157.9,154.3,160.9z"/>
<path class="st61" d="M160,214.2"/>
<path class="st36" d="M231.5,185.9"/>
</svg>
